<svg xmlns="http://www.w3.org/2000/svg" viewBox="0 0 189.31 157.35"><defs><style>.cls-1{fill:#0c0c0c;}.cls-2{fill:#4141d8;}.cls-3{fill:#d0d0d0;}</style></defs><g id="Layer_2" data-name="Layer 2"><g id="Layer_1-2" data-name="Layer 1"><path class="cls-1" d="M3.3,155.08A8.26,8.26,0,0,1,0,148.57H8.11a3.05,3.05,0,0,0,.86,2.1,2.73,2.73,0,0,0,1.9.66,2.74,2.74,0,0,0,1.73-.53,1.72,1.72,0,0,0,.68-1.45,2.09,2.09,0,0,0-1.13-1.87A20.14,20.14,0,0,0,8.5,146a33.36,33.36,0,0,1-4.33-1.73,8.29,8.29,0,0,1-2.87-2.44,6.84,6.84,0,0,1-1.22-4.22A7.68,7.68,0,0,1,1.4,133.1a8,8,0,0,1,3.65-2.85,13.54,13.54,0,0,1,5.28-1A12.06,12.06,0,0,1,18,131.51a8,8,0,0,1,3,6.27H12.74a2.47,2.47,0,0,0-.76-1.87,2.76,2.76,0,0,0-1.85-.62,1.94,1.94,0,0,0-1.39.51,1.83,1.83,0,0,0-.55,1.43,1.76,1.76,0,0,0,.6,1.34,5.73,5.73,0,0,0,1.5,1q.89.4,2.64,1a33.89,33.89,0,0,1,4.29,1.77,8.63,8.63,0,0,1,2.91,2.45,6.23,6.23,0,0,1,1.22,4,8,8,0,0,1-1.22,4.38,8.32,8.32,0,0,1-3.53,3.07,12.35,12.35,0,0,1-5.46,1.13A12.85,12.85,0,0,1,3.3,155.08Z"/><path class="cls-1" d="M63.44,129.7l-6.72,27.37H47.37L43.6,140.3l-3.84,16.77H30.4L23.76,129.7H32l3.19,18.72,4.31-18.72h8.34L52,148.26l3.18-18.56Z"/><path class="cls-2" d="M84,152.61H74.27l-1.47,4.46h-8l10-27.37h8.77l9.94,27.37h-8Zm-1.9-5.82-3-8.86-2.92,8.86Z"/><path class="cls-1" d="M116.46,143.35a8.28,8.28,0,0,1-3.46,3.26,11.89,11.89,0,0,1-5.65,1.22h-3.76v9.24H96V129.7h11.37a12.31,12.31,0,0,1,5.61,1.17,8,8,0,0,1,3.48,3.22,9.51,9.51,0,0,1,1.16,4.74A9.12,9.12,0,0,1,116.46,143.35Zm-6.62-4.52c0-2-1.08-3-3.23-3h-3v5.94h3C108.76,141.78,109.84,140.79,109.84,138.83Z"/><path class="cls-2" d="M141.15,143.35a8.22,8.22,0,0,1-3.46,3.26,11.87,11.87,0,0,1-5.64,1.22h-3.77v9.24h-7.61V129.7h11.38a12.31,12.31,0,0,1,5.61,1.17,8,8,0,0,1,3.47,3.22,9.41,9.41,0,0,1,1.17,4.74A9.12,9.12,0,0,1,141.15,143.35Zm-6.62-4.52c0-2-1.07-3-3.22-3h-3v5.94h3C133.46,141.78,134.53,140.79,134.53,138.83Z"/><path class="cls-2" d="M153,151.25h8.5v5.82H145.36V129.7H153Z"/><path class="cls-2" d="M189.31,129.7l-9.63,18.68v8.69H172v-8.69l-9.63-18.68h8.69l4.82,10.56,4.81-10.56Z"/><path class="cls-1" d="M54.89,59.92,31.7,100A3.13,3.13,0,0,0,34,104.67c10.61,1.33,11.29.16,17.19-10q5.51-9.5,11-19c4.27-7.42,4.92-11.34,1.06-16.34A5.06,5.06,0,0,0,54.89,59.92Z"/><path class="cls-2" d="M103.61,5.68a9.45,9.45,0,1,1-17-.58c-5.38,9.36-10.65,18.51-16.14,27.53-2.61,4.29-2.37,7.41.16,11.61,7.66,12.73,15,25.65,22.81,39.24A5.06,5.06,0,0,1,89,91.06H64L62.3,94.8c3.47,3.89,6.82,9.19,10.6,9.51,13.18,1.1,26.49.73,40.6.58a5.07,5.07,0,0,0,4.37-7.54c-.56-1-1.1-2-1.65-2.91-9.75-16.83-19.6-33.59-29.16-50.52-1.32-2.34-2.49-6-1.58-8.11a75.53,75.53,0,0,1,5-9.29,5.08,5.08,0,0,1,8.72.07l10.86,18.58a5.06,5.06,0,0,0,9.06-.64l0-.07c1-2.77,2.77-6.64,1.67-8.65C115.32,25.73,109.54,15.79,103.61,5.68Z"/><path class="cls-1" d="M157.52,99.1,135.05,60.16a5.08,5.08,0,0,0-8.56-.36c-4.4,6.29-3.25,8.27,2.16,17.63C132,83.3,135.4,89.18,138.8,95.05c5.69,9.82,6.7,11.3,16,9.75A3.84,3.84,0,0,0,157.52,99.1Z"/><path class="cls-3" d="M102.5,3.79l1.11,1.89A9.19,9.19,0,0,0,102.5,3.79Z"/><path class="cls-3" d="M86.56,5.1l.34-.59C86.78,4.7,86.67,4.9,86.56,5.1Z"/><path class="cls-2" d="M95,18.9a9.45,9.45,0,0,0,9.45-9.45,9.32,9.32,0,0,0-.79-3.77L102.5,3.79a9.43,9.43,0,0,0-15.6.72l-.34.59A9.45,9.45,0,0,0,95,18.9Z"/></g></g></svg>