<svg xmlns="http://www.w3.org/2000/svg" viewBox="0 0 189.31 28.07"><defs><style>.cls-1{fill:#0c0c0c;}.cls-2{fill:#4141d8;}</style></defs><g id="Layer_2" data-name="Layer 2"><g id="Layer_1-2" data-name="Layer 1"><path class="cls-1" d="M3.3,25.8A8.22,8.22,0,0,1,0,19.3H8.11A3,3,0,0,0,9,21.39a2.73,2.73,0,0,0,1.9.66,2.74,2.74,0,0,0,1.73-.52,1.75,1.75,0,0,0,.68-1.46,2.06,2.06,0,0,0-1.13-1.86A20,20,0,0,0,8.5,16.73,33.51,33.51,0,0,1,4.17,15,8.43,8.43,0,0,1,1.3,12.56,6.81,6.81,0,0,1,.08,8.35,7.71,7.71,0,0,1,1.4,3.82,8.18,8.18,0,0,1,5.05,1a13.54,13.54,0,0,1,5.28-1A12.06,12.06,0,0,1,18,2.23,8,8,0,0,1,21,8.5H12.74A2.45,2.45,0,0,0,12,6.64,2.76,2.76,0,0,0,10.13,6a2,2,0,0,0-1.39.5A1.85,1.85,0,0,0,8.19,8a1.78,1.78,0,0,0,.6,1.34,5.71,5.71,0,0,0,1.5,1c.59.27,1.47.61,2.64,1a31.16,31.16,0,0,1,4.29,1.77,8.6,8.6,0,0,1,2.91,2.44,6.27,6.27,0,0,1,1.22,4,8,8,0,0,1-1.22,4.39A8.46,8.46,0,0,1,16.6,27a12.35,12.35,0,0,1-5.46,1.12A12.85,12.85,0,0,1,3.3,25.8Z"/><path class="cls-1" d="M63.44.43,56.72,27.8H47.37L43.6,11,39.76,27.8H30.4L23.76.43H32l3.19,18.71L39.49.43h8.34L52,19,55.21.43Z"/><path class="cls-2" d="M84,23.33H74.27L72.8,27.8h-8L74.78.43h8.77L93.49,27.8h-8Zm-1.9-5.82-3-8.85-2.92,8.85Z"/><path class="cls-1" d="M116.46,14.07A8.37,8.37,0,0,1,113,17.34a12,12,0,0,1-5.65,1.22h-3.76V27.8H96V.43h11.37A12.44,12.44,0,0,1,113,1.59a8.07,8.07,0,0,1,3.48,3.22,9.56,9.56,0,0,1,1.16,4.74A9.06,9.06,0,0,1,116.46,14.07Zm-6.62-4.52q0-3-3.23-3h-3V12.5h3Q109.84,12.5,109.84,9.55Z"/><path class="cls-2" d="M141.15,14.07a8.31,8.31,0,0,1-3.46,3.27,12,12,0,0,1-5.64,1.22h-3.77V27.8h-7.61V.43h11.38a12.44,12.44,0,0,1,5.61,1.16,8,8,0,0,1,3.47,3.22,9.46,9.46,0,0,1,1.17,4.74A9.07,9.07,0,0,1,141.15,14.07Zm-6.62-4.52q0-3-3.22-3h-3V12.5h3Q134.54,12.5,134.53,9.55Z"/><path class="cls-2" d="M153,22h8.5V27.8H145.36V.43H153Z"/><path class="cls-2" d="M189.31.43,179.68,19.1v8.7H172V19.1L162.41.43h8.69L175.92,11,180.73.43Z"/></g></g></svg>