<svg xmlns="http://www.w3.org/2000/svg" viewBox="0 0 126.75 105.33"><defs><style>.cls-1{fill:#0c0c0c;}.cls-2{fill:#4141d8;}.cls-3{fill:#d0d0d0;}</style></defs><g id="Layer_2" data-name="Layer 2"><g id="Layer_1-2" data-name="Layer 1"><path class="cls-1" d="M23.61,59.92.42,100a3.13,3.13,0,0,0,2.33,4.67c10.6,1.33,11.28.16,17.18-10q5.51-9.5,11-19C35.2,68.27,35.85,64.35,32,59.35A5.06,5.06,0,0,0,23.61,59.92Z"/><path class="cls-2" d="M72.33,5.68a9.45,9.45,0,1,1-17-.58C49.9,14.46,44.63,23.61,39.14,32.63c-2.61,4.29-2.37,7.41.17,11.61C47,57,54.31,69.89,62.11,83.48a5.06,5.06,0,0,1-4.39,7.58h-25L31,94.8c3.47,3.89,6.82,9.19,10.6,9.51,13.18,1.1,26.49.73,40.6.58a5.07,5.07,0,0,0,4.37-7.54c-.56-1-1.1-2-1.65-2.91C75.2,77.61,65.34,60.85,55.78,43.92c-1.32-2.34-2.49-6-1.58-8.11a75.53,75.53,0,0,1,5-9.29,5.08,5.08,0,0,1,8.72.07L78.78,45.17a5.06,5.06,0,0,0,9.06-.64l0-.07c1-2.77,2.77-6.64,1.67-8.65C84,25.73,78.26,15.79,72.33,5.68Z"/><path class="cls-1" d="M126.24,99.1,103.77,60.16a5.08,5.08,0,0,0-8.56-.36c-4.4,6.29-3.25,8.27,2.16,17.63,3.39,5.87,6.75,11.75,10.15,17.62,5.69,9.82,6.7,11.3,16,9.75A3.84,3.84,0,0,0,126.24,99.1Z"/><path class="cls-3" d="M71.22,3.79l1.11,1.89A9.19,9.19,0,0,0,71.22,3.79Z"/><path class="cls-3" d="M55.28,5.1l.34-.59C55.5,4.7,55.39,4.9,55.28,5.1Z"/><path class="cls-2" d="M63.67,18.9a9.45,9.45,0,0,0,9.45-9.45,9.32,9.32,0,0,0-.79-3.77L71.22,3.79a9.43,9.43,0,0,0-15.6.72l-.34.59a9.45,9.45,0,0,0,8.39,13.8Z"/></g></g></svg>